<svg width="60" height="61" viewBox="0 0 60 61" fill="none" xmlns="http://www.w3.org/2000/svg">
<circle cx="30" cy="30.4297" r="30" fill="#736E6E"/>
<path d="M16.335 22.9326H12.3975V27H10.3467V17.0469H16.8271V18.708H12.3975V21.2783H16.335V22.9326ZM17.4287 23.2334C17.4287 22.4997 17.57 21.8457 17.8525 21.2715C18.1351 20.6973 18.5407 20.2529 19.0693 19.9385C19.6025 19.624 20.2201 19.4668 20.9219 19.4668C21.9199 19.4668 22.7334 19.7721 23.3623 20.3828C23.9958 20.9935 24.349 21.8229 24.4219 22.8711L24.4355 23.377C24.4355 24.5117 24.1188 25.4232 23.4854 26.1113C22.8519 26.7949 22.002 27.1367 20.9355 27.1367C19.8691 27.1367 19.0169 26.7949 18.3789 26.1113C17.7454 25.4277 17.4287 24.498 17.4287 23.3223V23.2334ZM19.4043 23.377C19.4043 24.0788 19.5365 24.6165 19.8008 24.9902C20.0651 25.3594 20.4434 25.5439 20.9355 25.5439C21.4141 25.5439 21.7878 25.3617 22.0566 24.9971C22.3255 24.6279 22.46 24.04 22.46 23.2334C22.46 22.5452 22.3255 22.012 22.0566 21.6338C21.7878 21.2555 21.4095 21.0664 20.9219 21.0664C20.4388 21.0664 20.0651 21.2555 19.8008 21.6338C19.5365 22.0075 19.4043 22.5885 19.4043 23.377ZM27.7373 27H25.7549V16.5H27.7373V27ZM31.4561 27H29.4736V16.5H31.4561V27ZM32.7822 23.2334C32.7822 22.4997 32.9235 21.8457 33.2061 21.2715C33.4886 20.6973 33.8942 20.2529 34.4229 19.9385C34.9561 19.624 35.5736 19.4668 36.2754 19.4668C37.2734 19.4668 38.0869 19.7721 38.7158 20.3828C39.3493 20.9935 39.7025 21.8229 39.7754 22.8711L39.7891 23.377C39.7891 24.5117 39.4723 25.4232 38.8389 26.1113C38.2054 26.7949 37.3555 27.1367 36.2891 27.1367C35.2227 27.1367 34.3704 26.7949 33.7324 26.1113C33.099 25.4277 32.7822 24.498 32.7822 23.3223V23.2334ZM34.7578 23.377C34.7578 24.0788 34.89 24.6165 35.1543 24.9902C35.4186 25.3594 35.7969 25.5439 36.2891 25.5439C36.7676 25.5439 37.1413 25.3617 37.4102 24.9971C37.679 24.6279 37.8135 24.04 37.8135 23.2334C37.8135 22.5452 37.679 22.012 37.4102 21.6338C37.1413 21.2555 36.763 21.0664 36.2754 21.0664C35.7923 21.0664 35.4186 21.2555 35.1543 21.6338C34.89 22.0075 34.7578 22.5885 34.7578 23.377ZM47.4385 24.3135L48.4092 19.6035H50.3164L48.4297 27H46.7754L45.374 22.3447L43.9727 27H42.3252L40.4385 19.6035H42.3457L43.3096 24.3066L44.6631 19.6035H46.0918L47.4385 24.3135ZM16.1572 34.708H13.1084V43H11.0576V34.708H8.0498V33.0469H16.1572V34.708ZM19.1309 36.4102C19.6549 35.7812 20.3135 35.4668 21.1064 35.4668C22.7106 35.4668 23.5241 36.3988 23.5469 38.2627V43H21.5713V38.3174C21.5713 37.8936 21.4801 37.5814 21.2979 37.3809C21.1156 37.1758 20.8125 37.0732 20.3887 37.0732C19.8099 37.0732 19.3906 37.2965 19.1309 37.7432V43H17.1553V32.5H19.1309V36.4102ZM29.1934 37.4561C28.9245 37.4196 28.6875 37.4014 28.4824 37.4014C27.735 37.4014 27.2451 37.6543 27.0127 38.1602V43H25.0371V35.6035H26.9033L26.958 36.4854C27.3545 35.8063 27.9036 35.4668 28.6055 35.4668C28.8242 35.4668 29.0293 35.4964 29.2207 35.5557L29.1934 37.4561ZM33.418 43.1367C32.3333 43.1367 31.4492 42.804 30.7656 42.1387C30.0866 41.4733 29.7471 40.5869 29.7471 39.4795V39.2881C29.7471 38.5452 29.8906 37.8822 30.1777 37.2988C30.4648 36.7109 30.8704 36.2598 31.3945 35.9453C31.9232 35.6263 32.5247 35.4668 33.1992 35.4668C34.2109 35.4668 35.0062 35.7858 35.585 36.4238C36.1683 37.0618 36.46 37.9665 36.46 39.1377V39.9443H31.75C31.8138 40.4274 32.0052 40.8148 32.3242 41.1064C32.6478 41.3981 33.0557 41.5439 33.5479 41.5439C34.3089 41.5439 34.9036 41.2682 35.332 40.7168L36.3027 41.8037C36.0065 42.223 35.6055 42.5511 35.0996 42.7881C34.5938 43.0205 34.0332 43.1367 33.418 43.1367ZM33.1924 37.0664C32.8005 37.0664 32.4814 37.1986 32.2354 37.4629C31.9938 37.7272 31.8389 38.1055 31.7705 38.5977H34.5186V38.4404C34.5094 38.0029 34.391 37.6657 34.1631 37.4287C33.9352 37.1872 33.6117 37.0664 33.1924 37.0664ZM41.874 43C41.7829 42.8223 41.7168 42.6012 41.6758 42.3369C41.1973 42.8701 40.5752 43.1367 39.8096 43.1367C39.085 43.1367 38.4834 42.9271 38.0049 42.5078C37.5309 42.0885 37.2939 41.5599 37.2939 40.9219C37.2939 40.138 37.5833 39.5365 38.1621 39.1172C38.7454 38.6979 39.5863 38.486 40.6846 38.4814H41.5938V38.0576C41.5938 37.7158 41.5049 37.4424 41.3271 37.2373C41.154 37.0322 40.8783 36.9297 40.5 36.9297C40.1673 36.9297 39.9053 37.0094 39.7139 37.1689C39.527 37.3285 39.4336 37.5472 39.4336 37.8252H37.458C37.458 37.3968 37.5902 37.0003 37.8545 36.6357C38.1188 36.2712 38.4925 35.9863 38.9756 35.7812C39.4587 35.5716 40.001 35.4668 40.6025 35.4668C41.514 35.4668 42.2363 35.6969 42.7695 36.1572C43.3073 36.613 43.5762 37.2555 43.5762 38.085V41.291C43.5807 41.9928 43.6787 42.5238 43.8701 42.8838V43H41.874ZM40.2402 41.626C40.5319 41.626 40.8008 41.5622 41.0469 41.4346C41.293 41.3024 41.4753 41.127 41.5938 40.9082V39.6367H40.8555C39.8665 39.6367 39.3402 39.9785 39.2764 40.6621L39.2695 40.7783C39.2695 41.0244 39.3561 41.2272 39.5293 41.3867C39.7025 41.5462 39.9395 41.626 40.2402 41.626ZM44.7861 39.2471C44.7861 38.0941 45.0436 37.1758 45.5586 36.4922C46.0781 35.8086 46.7868 35.4668 47.6846 35.4668C48.4046 35.4668 48.9993 35.7357 49.4688 36.2734V32.5H51.4512V43H49.667L49.5713 42.2139C49.0791 42.8291 48.4456 43.1367 47.6709 43.1367C46.8005 43.1367 46.1009 42.7949 45.5723 42.1113C45.0482 41.4232 44.7861 40.4684 44.7861 39.2471ZM46.7617 39.3906C46.7617 40.0833 46.8825 40.6143 47.124 40.9834C47.3656 41.3525 47.7165 41.5371 48.1768 41.5371C48.7874 41.5371 49.2181 41.2796 49.4688 40.7646V37.8457C49.2227 37.3307 48.7965 37.0732 48.1904 37.0732C47.238 37.0732 46.7617 37.8457 46.7617 39.3906Z" fill="white"/>
</svg>
