<svg width="200" height="100" viewBox="0 0 200 100" fill="none" xmlns="http://www.w3.org/2000/svg">
<rect y="48.9583" width="200" height="51.0417" fill="#FFCF00"/>
<path d="M8.76953 37H2.91016V8.5625H8.76953V37ZM29.0039 15.8672L29.1797 18.3086C30.6901 16.4206 32.7148 15.4766 35.2539 15.4766C37.4935 15.4766 39.1602 16.1341 40.2539 17.4492C41.3477 18.7643 41.9076 20.7305 41.9336 23.3477V37H36.2891V23.4844C36.2891 22.2865 36.0286 21.4206 35.5078 20.8867C34.987 20.3398 34.1211 20.0664 32.9102 20.0664C31.3216 20.0664 30.1302 20.7435 29.3359 22.0977V37H23.6914V15.8672H29.0039ZM57.7344 37V20.0078H54.5898V15.8672H57.7344V14.0703C57.7344 11.7005 58.4115 9.86458 59.7656 8.5625C61.1328 7.2474 63.0404 6.58984 65.4883 6.58984C66.2695 6.58984 67.2266 6.72005 68.3594 6.98047L68.3008 11.3555C67.832 11.2383 67.2591 11.1797 66.582 11.1797C64.4596 11.1797 63.3984 12.1758 63.3984 14.168V15.8672H67.5977V20.0078H63.3984V37H57.7344ZM86.4453 37H80.7812V15.8672H86.4453V37ZM80.4492 10.3984C80.4492 9.55208 80.7292 8.85547 81.2891 8.30859C81.862 7.76172 82.6367 7.48828 83.6133 7.48828C84.5768 7.48828 85.3451 7.76172 85.918 8.30859C86.4909 8.85547 86.7773 9.55208 86.7773 10.3984C86.7773 11.2578 86.4844 11.9609 85.8984 12.5078C85.3255 13.0547 84.5638 13.3281 83.6133 13.3281C82.6628 13.3281 81.8945 13.0547 81.3086 12.5078C80.7357 11.9609 80.4492 11.2578 80.4492 10.3984ZM106.27 15.8672L106.445 18.3086C107.956 16.4206 109.98 15.4766 112.52 15.4766C114.759 15.4766 116.426 16.1341 117.52 17.4492C118.613 18.7643 119.173 20.7305 119.199 23.3477V37H113.555V23.4844C113.555 22.2865 113.294 21.4206 112.773 20.8867C112.253 20.3398 111.387 20.0664 110.176 20.0664C108.587 20.0664 107.396 20.7435 106.602 22.0977V37H100.957V15.8672H106.27ZM139.414 37H133.75V15.8672H139.414V37ZM133.418 10.3984C133.418 9.55208 133.698 8.85547 134.258 8.30859C134.831 7.76172 135.605 7.48828 136.582 7.48828C137.546 7.48828 138.314 7.76172 138.887 8.30859C139.46 8.85547 139.746 9.55208 139.746 10.3984C139.746 11.2578 139.453 11.9609 138.867 12.5078C138.294 13.0547 137.533 13.3281 136.582 13.3281C135.632 13.3281 134.863 13.0547 134.277 12.5078C133.704 11.9609 133.418 11.2578 133.418 10.3984ZM160.801 10.6719V15.8672H164.414V20.0078H160.801V30.5547C160.801 31.3359 160.951 31.8958 161.25 32.2344C161.549 32.5729 162.122 32.7422 162.969 32.7422C163.594 32.7422 164.147 32.6966 164.629 32.6055V36.8828C163.522 37.2214 162.383 37.3906 161.211 37.3906C157.253 37.3906 155.234 35.3919 155.156 31.3945V20.0078H152.07V15.8672H155.156V10.6719H160.801ZM185.41 29.0117L189.316 15.8672H195.371L186.875 40.2812L186.406 41.3945C185.143 44.1549 183.06 45.5352 180.156 45.5352C179.336 45.5352 178.503 45.4115 177.656 45.1641V40.8867L178.516 40.9062C179.583 40.9062 180.378 40.7435 180.898 40.418C181.432 40.0924 181.849 39.5521 182.148 38.7969L182.812 37.0586L175.41 15.8672H181.484L185.41 29.0117Z" fill="white"/>
<path d="M2.53906 88V59.5625H11.2891C13.7891 59.5625 16.0221 60.1289 17.9883 61.2617C19.9674 62.3815 21.5104 63.9831 22.6172 66.0664C23.724 68.1367 24.2773 70.4935 24.2773 73.1367V74.4453C24.2773 77.0885 23.7305 79.4388 22.6367 81.4961C21.556 83.5534 20.026 85.1484 18.0469 86.2812C16.0677 87.4141 13.8346 87.987 11.3477 88H2.53906ZM8.39844 64.3086V83.293H11.2305C13.5221 83.293 15.2734 82.5443 16.4844 81.0469C17.6953 79.5495 18.3138 77.4076 18.3398 74.6211V73.1172C18.3398 70.2266 17.7409 68.0391 16.543 66.5547C15.3451 65.0573 13.5938 64.3086 11.2891 64.3086H8.39844ZM34.1406 88H28.4766V66.8672H34.1406V88ZM28.1445 61.3984C28.1445 60.5521 28.4245 59.8555 28.9844 59.3086C29.5573 58.7617 30.332 58.4883 31.3086 58.4883C32.2721 58.4883 33.0404 58.7617 33.6133 59.3086C34.1862 59.8555 34.4727 60.5521 34.4727 61.3984C34.4727 62.2578 34.1797 62.9609 33.5938 63.5078C33.0208 64.0547 32.2591 64.3281 31.3086 64.3281C30.3581 64.3281 29.5898 64.0547 29.0039 63.5078C28.431 62.9609 28.1445 62.2578 28.1445 61.3984ZM50.2539 82.1602C50.2539 81.4701 49.9089 80.9297 49.2188 80.5391C48.5417 80.1354 47.4479 79.7773 45.9375 79.4648C40.9115 78.4102 38.3984 76.2747 38.3984 73.0586C38.3984 71.1836 39.1732 69.6211 40.7227 68.3711C42.2852 67.1081 44.3229 66.4766 46.8359 66.4766C49.5182 66.4766 51.6602 67.1081 53.2617 68.3711C54.8763 69.6341 55.6836 71.2747 55.6836 73.293H50.0391C50.0391 72.4857 49.7786 71.8216 49.2578 71.3008C48.737 70.7669 47.9232 70.5 46.8164 70.5C45.8659 70.5 45.1302 70.7148 44.6094 71.1445C44.0885 71.5742 43.8281 72.1211 43.8281 72.7852C43.8281 73.4102 44.1211 73.918 44.707 74.3086C45.306 74.6862 46.3086 75.0182 47.7148 75.3047C49.1211 75.5781 50.306 75.8906 51.2695 76.2422C54.2513 77.3359 55.7422 79.2305 55.7422 81.9258C55.7422 83.8529 54.9154 85.4154 53.2617 86.6133C51.6081 87.7982 49.4727 88.3906 46.8555 88.3906C45.0846 88.3906 43.5091 88.0781 42.1289 87.4531C40.7617 86.8151 39.6875 85.9492 38.9062 84.8555C38.125 83.7487 37.7344 82.5573 37.7344 81.2812H43.0859C43.138 82.2839 43.5091 83.0521 44.1992 83.5859C44.8893 84.1198 45.8138 84.3867 46.9727 84.3867C48.0534 84.3867 48.8672 84.1849 49.4141 83.7812C49.974 83.3646 50.2539 82.8242 50.2539 82.1602ZM68.1836 83.8398C69.2253 83.8398 70.0716 83.5534 70.7227 82.9805C71.3737 82.4076 71.7122 81.6458 71.7383 80.6953H77.0312C77.0182 82.1276 76.6276 83.4427 75.8594 84.6406C75.0911 85.8255 74.0365 86.75 72.6953 87.4141C71.3672 88.0651 69.8958 88.3906 68.2812 88.3906C65.2604 88.3906 62.8776 87.4336 61.1328 85.5195C59.388 83.5924 58.5156 80.9362 58.5156 77.5508V77.1797C58.5156 73.9245 59.3815 71.3268 61.1133 69.3867C62.8451 67.4466 65.2214 66.4766 68.2422 66.4766C70.8854 66.4766 73.0013 67.2318 74.5898 68.7422C76.1914 70.2396 77.0052 72.2383 77.0312 74.7383H71.7383C71.7122 73.6445 71.3737 72.7591 70.7227 72.082C70.0716 71.3919 69.2122 71.0469 68.1445 71.0469C66.8294 71.0469 65.8333 71.5286 65.1562 72.4922C64.4922 73.4427 64.1602 74.9922 64.1602 77.1406V77.7266C64.1602 79.901 64.4922 81.4635 65.1562 82.4141C65.8203 83.3646 66.8294 83.8398 68.1836 83.8398ZM92.9102 85.8516C91.5169 87.5443 89.5898 88.3906 87.1289 88.3906C84.8633 88.3906 83.1315 87.7396 81.9336 86.4375C80.7487 85.1354 80.1432 83.2279 80.1172 80.7148V66.8672H85.7617V80.5195C85.7617 82.7201 86.7643 83.8203 88.7695 83.8203C90.6836 83.8203 91.9987 83.1562 92.7148 81.8281V66.8672H98.3789V88H93.0664L92.9102 85.8516ZM114.082 82.1602C114.082 81.4701 113.737 80.9297 113.047 80.5391C112.37 80.1354 111.276 79.7773 109.766 79.4648C104.74 78.4102 102.227 76.2747 102.227 73.0586C102.227 71.1836 103.001 69.6211 104.551 68.3711C106.113 67.1081 108.151 66.4766 110.664 66.4766C113.346 66.4766 115.488 67.1081 117.09 68.3711C118.704 69.6341 119.512 71.2747 119.512 73.293H113.867C113.867 72.4857 113.607 71.8216 113.086 71.3008C112.565 70.7669 111.751 70.5 110.645 70.5C109.694 70.5 108.958 70.7148 108.438 71.1445C107.917 71.5742 107.656 72.1211 107.656 72.7852C107.656 73.4102 107.949 73.918 108.535 74.3086C109.134 74.6862 110.137 75.0182 111.543 75.3047C112.949 75.5781 114.134 75.8906 115.098 76.2422C118.079 77.3359 119.57 79.2305 119.57 81.9258C119.57 83.8529 118.743 85.4154 117.09 86.6133C115.436 87.7982 113.301 88.3906 110.684 88.3906C108.913 88.3906 107.337 88.0781 105.957 87.4531C104.59 86.8151 103.516 85.9492 102.734 84.8555C101.953 83.7487 101.562 82.5573 101.562 81.2812H106.914C106.966 82.2839 107.337 83.0521 108.027 83.5859C108.717 84.1198 109.642 84.3867 110.801 84.3867C111.882 84.3867 112.695 84.1849 113.242 83.7812C113.802 83.3646 114.082 82.8242 114.082 82.1602ZM134.668 82.1602C134.668 81.4701 134.323 80.9297 133.633 80.5391C132.956 80.1354 131.862 79.7773 130.352 79.4648C125.326 78.4102 122.812 76.2747 122.812 73.0586C122.812 71.1836 123.587 69.6211 125.137 68.3711C126.699 67.1081 128.737 66.4766 131.25 66.4766C133.932 66.4766 136.074 67.1081 137.676 68.3711C139.29 69.6341 140.098 71.2747 140.098 73.293H134.453C134.453 72.4857 134.193 71.8216 133.672 71.3008C133.151 70.7669 132.337 70.5 131.23 70.5C130.28 70.5 129.544 70.7148 129.023 71.1445C128.503 71.5742 128.242 72.1211 128.242 72.7852C128.242 73.4102 128.535 73.918 129.121 74.3086C129.72 74.6862 130.723 75.0182 132.129 75.3047C133.535 75.5781 134.72 75.8906 135.684 76.2422C138.665 77.3359 140.156 79.2305 140.156 81.9258C140.156 83.8529 139.329 85.4154 137.676 86.6133C136.022 87.7982 133.887 88.3906 131.27 88.3906C129.499 88.3906 127.923 88.0781 126.543 87.4531C125.176 86.8151 124.102 85.9492 123.32 84.8555C122.539 83.7487 122.148 82.5573 122.148 81.2812H127.5C127.552 82.2839 127.923 83.0521 128.613 83.5859C129.303 84.1198 130.228 84.3867 131.387 84.3867C132.467 84.3867 133.281 84.1849 133.828 83.7812C134.388 83.3646 134.668 82.8242 134.668 82.1602ZM149.766 88H144.102V66.8672H149.766V88ZM143.77 61.3984C143.77 60.5521 144.049 59.8555 144.609 59.3086C145.182 58.7617 145.957 58.4883 146.934 58.4883C147.897 58.4883 148.665 58.7617 149.238 59.3086C149.811 59.8555 150.098 60.5521 150.098 61.3984C150.098 62.2578 149.805 62.9609 149.219 63.5078C148.646 64.0547 147.884 64.3281 146.934 64.3281C145.983 64.3281 145.215 64.0547 144.629 63.5078C144.056 62.9609 143.77 62.2578 143.77 61.3984ZM153.555 77.2383C153.555 75.1419 153.958 73.2734 154.766 71.6328C155.573 69.9922 156.732 68.7227 158.242 67.8242C159.766 66.9258 161.53 66.4766 163.535 66.4766C166.387 66.4766 168.711 67.349 170.508 69.0938C172.318 70.8385 173.327 73.2083 173.535 76.2031L173.574 77.6484C173.574 80.8906 172.669 83.4948 170.859 85.4609C169.049 87.4141 166.621 88.3906 163.574 88.3906C160.527 88.3906 158.092 87.4141 156.27 85.4609C154.46 83.5078 153.555 80.8516 153.555 77.4922V77.2383ZM159.199 77.6484C159.199 79.6536 159.577 81.1901 160.332 82.2578C161.087 83.3125 162.168 83.8398 163.574 83.8398C164.941 83.8398 166.009 83.319 166.777 82.2773C167.546 81.2227 167.93 79.543 167.93 77.2383C167.93 75.2721 167.546 73.7487 166.777 72.668C166.009 71.5872 164.928 71.0469 163.535 71.0469C162.155 71.0469 161.087 71.5872 160.332 72.668C159.577 73.7357 159.199 75.3958 159.199 77.6484ZM182.246 66.8672L182.422 69.3086C183.932 67.4206 185.957 66.4766 188.496 66.4766C190.736 66.4766 192.402 67.1341 193.496 68.4492C194.59 69.7643 195.15 71.7305 195.176 74.3477V88H189.531V74.4844C189.531 73.2865 189.271 72.4206 188.75 71.8867C188.229 71.3398 187.363 71.0664 186.152 71.0664C184.564 71.0664 183.372 71.7435 182.578 73.0977V88H176.934V66.8672H182.246Z" fill="black"/>
</svg>
